<svg xmlns="http://www.w3.org/2000/svg" viewBox="0 0 480 320" preserveAspectRatio="xMidYMid slice">
  <defs>
    <linearGradient id="bg" x1="0" y1="0" x2="1" y2="1">
      <stop offset="0%" stop-color="#e2e8f0"/>
      <stop offset="100%" stop-color="#cbd5e1"/>
    </linearGradient>
  </defs>
  <rect width="480" height="320" fill="url(#bg)"/>
  <g transform="translate(240 170)" fill="#94a3b8">
    <path d="M-110 -10c4-22 18-50 28-58 10-8 26-12 82-12s72 4 82 12c10 8 24 36 28 58l8 4v40c0 8-6 14-14 14h-12v8c0 10-8 18-18 18s-18-8-18-18v-8h-112v8c0 10-8 18-18 18s-18-8-18-18v-8h-12c-8 0-14-6-14-14v-40z"/>
    <circle cx="-72" cy="22" r="14" fill="#475569"/>
    <circle cx="72" cy="22" r="14" fill="#475569"/>
    <path fill="#cbd5e1" d="M-92 -8c4-14 12-32 20-38 8-4 24-6 72-6s64 2 72 6c8 6 16 24 20 38z"/>
  </g>
  <text x="240" y="270" text-anchor="middle" font-family="Inter, sans-serif" font-size="14" fill="#64748b" font-weight="600">Вольный Ход</text>
</svg>
